<?xml version="1.0" standalone="no"?>
<!DOCTYPE svg PUBLIC "-//W3C//DTD SVG 20010904//EN"
 "http://www.w3.org/TR/2001/REC-SVG-20010904/DTD/svg10.dtd">
<svg version="1.0" xmlns="http://www.w3.org/2000/svg"
 width="192.000000pt" height="201.000000pt" viewBox="0 0 192.000000 201.000000"
 preserveAspectRatio="xMidYMid meet">
<metadata>
Created by potrace 1.14, written by Peter Selinger 2001-2017
</metadata>
<g transform="translate(0.000000,201.000000) scale(0.100000,-0.100000)"
fill="#000000" stroke="none">
<path d="M918 1865 c26 -57 50 -101 54 -97 16 16 77 175 71 184 -3 7 -1 8 5 4
7 -4 12 -2 12 3 0 7 -35 11 -94 11 l-94 0 46 -105z"/>
<path d="M810 1893 c-14 -2 -61 -13 -105 -24 -82 -21 -265 -104 -265 -120 0
-5 -5 -9 -11 -9 -12 0 -100 -68 -112 -87 -4 -7 -13 -13 -19 -13 -14 0 -66 -54
-79 -83 -5 -12 -23 -40 -39 -62 -117 -155 -185 -419 -160 -621 14 -115 35
-207 57 -247 10 -18 18 -36 18 -42 1 -5 9 -25 19 -44 14 -27 20 -31 28 -20 8
11 8 9 4 -5 -4 -12 5 -38 26 -72 32 -54 58 -75 58 -48 0 8 7 17 15 20 8 4 12
10 9 16 -3 5 -13 4 -22 -4 -15 -11 -15 -11 -4 3 10 14 6 26 -23 75 -20 33 -39
59 -43 59 -4 0 -16 6 -27 12 -18 11 -18 12 -2 13 9 0 17 -5 17 -12 0 -6 2 -9
5 -6 3 3 -4 27 -15 54 -83 193 -85 480 -4 663 26 58 32 92 10 51 l-14 -25 1
27 c2 19 7 25 19 23 12 -3 25 11 43 42 14 25 23 48 21 51 -7 7 -27 -9 -22 -17
3 -4 -1 -8 -8 -8 -7 0 -13 6 -13 13 0 7 4 11 8 8 4 -2 11 1 14 7 4 5 13 8 21
5 16 -6 46 32 37 47 -3 6 -1 7 4 4 13 -8 65 57 55 69 -4 5 -3 6 2 2 4 -4 37
17 71 47 35 29 73 59 85 65 18 10 19 14 8 28 -12 15 -11 16 4 4 14 -11 25 -9
75 16 74 38 208 80 278 88 30 4 55 8 55 10 0 2 -5 15 -12 29 -11 25 -18 26
-68 18z"/>
<path d="M1055 1870 l-14 -28 47 -7 c103 -15 277 -83 354 -136 31 -23 45 -25
28 -4 -9 10 -9 15 -1 15 6 0 12 -4 12 -10 1 -5 2 -15 3 -21 2 -16 58 -59 69
-52 6 3 7 1 4 -4 -4 -6 -1 -15 6 -21 8 -7 19 -5 36 9 13 10 18 19 12 19 -7 0
-10 4 -7 8 7 12 -156 133 -223 167 -29 14 -60 24 -68 21 -8 -3 -11 -2 -8 4 6
10 -98 43 -183 58 -52 9 -53 9 -67 -18z"/>
<path d="M855 1814 c-11 -3 -46 -9 -77 -16 -32 -6 -58 -14 -58 -18 0 -8 80
-270 171 -562 38 -123 41 -128 67 -128 27 0 29 6 139 328 61 180 114 334 118
343 5 14 -6 19 -62 32 -125 29 -119 30 -142 -22 -17 -39 -17 -47 -5 -54 15 -8
19 -55 6 -72 -4 -6 -20 -17 -37 -25 -16 -8 -33 -16 -37 -18 -5 -2 -8 5 -8 15
0 10 -7 26 -15 36 -15 20 -11 42 12 69 13 14 12 21 -7 57 -20 40 -25 43 -65
35z"/>
<path d="M1630 1525 c12 -13 26 -22 31 -20 4 3 11 0 15 -6 4 -8 3 -9 -4 -5
-19 12 -14 -3 19 -50 46 -67 96 -180 120 -269 29 -113 30 -296 0 -418 -11 -49
-18 -94 -14 -99 3 -6 1 -8 -5 -4 -13 8 -26 -29 -16 -45 5 -8 3 -9 -6 -4 -10 6
-12 4 -7 -9 5 -11 3 -15 -5 -10 -8 5 -9 1 -4 -12 4 -10 4 -15 0 -11 -4 4 -20
-13 -36 -38 -33 -52 -33 -55 -12 -55 9 0 14 6 11 13 -3 7 1 21 9 32 8 10 14
14 14 8 0 -7 -5 -15 -11 -19 -8 -5 -7 -10 4 -16 9 -5 14 -16 11 -26 -5 -16 -5
-16 5 0 9 13 16 46 20 91 1 4 9 7 19 7 20 0 45 52 74 155 41 146 40 350 -2
503 -26 94 -98 245 -141 292 -17 19 -27 28 -23 20 7 -13 6 -13 -10 -1 -9 8
-31 16 -48 18 l-32 3 24 -25z"/>
<path d="M231 1422 c-68 -106 -114 -239 -127 -370 l-7 -62 71 0 c76 0 75 -1
171 88 45 41 61 47 68 25 4 -11 -74 -89 -86 -86 -3 0 -11 -5 -18 -12 -16 -17
88 -25 334 -25 186 0 193 1 195 20 0 11 1 24 2 29 1 8 -100 86 -521 402 l-51
38 -31 -47z"/>
<path d="M914 1060 c-32 -13 -64 -59 -64 -92 0 -70 56 -117 124 -104 46 9 76
47 76 98 0 52 -15 77 -55 94 -39 16 -51 16 -81 4z"/>
<path d="M1073 927 c-12 -26 -10 -28 109 -119 69 -52 124 -86 126 -80 2 7 10
12 18 12 8 0 26 10 39 23 53 49 56 51 66 36 9 -15 -42 -75 -73 -85 -10 -3 -18
-9 -18 -15 0 -5 69 -60 153 -123 l152 -115 18 22 c32 40 105 201 121 267 8 36
18 93 22 128 l7 62 -125 0 c-69 0 -232 3 -364 7 l-239 6 -12 -26z"/>
<path d="M815 516 c-59 -177 -111 -327 -113 -335 -3 -8 -1 -12 5 -8 5 3 10 0
10 -7 0 -8 -7 -12 -16 -9 -14 4 -14 3 -1 -5 28 -18 168 -42 248 -42 89 0 173
9 168 19 -2 3 11 6 30 7 19 0 37 3 40 7 9 8 -198 677 -208 671 -4 -3 -5 1 -2
9 3 10 -3 14 -23 14 -29 0 -29 -1 -138 -321z"/>
<path d="M263 382 c10 -10 17 -27 17 -37 0 -18 -1 -18 -15 1 -14 18 -15 18 -7
-6 12 -34 130 -132 224 -187 43 -24 80 -49 84 -54 3 -5 14 -9 25 -9 24 0 24
-8 2 -34 -18 -21 -18 -21 3 -4 26 23 44 23 151 -3 122 -30 294 -29 418 0 49
12 97 29 106 37 10 9 22 13 27 10 9 -5 152 60 152 70 0 2 -7 1 -15 -2 -9 -4
-15 0 -15 9 0 28 -16 27 -97 -8 -134 -59 -222 -77 -363 -78 -172 -1 -312 36
-451 119 -61 37 -74 41 -63 22 4 -8 3 -10 -2 -5 -5 5 -9 14 -9 20 -1 7 -6 11
-13 10 -7 -2 -11 0 -10 5 2 4 -23 31 -55 61 -31 30 -57 50 -57 46 0 -5 -9 1
-20 13 -12 12 -24 22 -27 22 -3 0 1 -8 10 -18z"/>
</g>
</svg>
