<svg width="114" height="114" viewBox="0 0 114 114" xmlns="http://www.w3.org/2000/svg"><title>pe_symbol_teal_yellow</title><g fill="none" fill-rule="evenodd"><g><path d="M81.714 81.774c-14.032 14.032-36.99 13.699-50.6-.999-12.142-13.116-12.4-33.619-.564-47.013 8.922-10.098 22.136-13.764 34.184-11.015a1.036 1.036 0 0 0 1.239-.735l5.126-19.128a1.04 1.04 0 0 0-.751-1.278c-19.081-4.619-40.08.724-54.703 16.058-20.852 21.868-20.861 56.686-.018 78.563 22.154 23.253 58.972 23.59 81.55 1.011 14.573-14.572 19.586-35.072 15.068-53.736a1.037 1.037 0 0 0-1.277-.75l-19.13 5.126a1.034 1.034 0 0 0-.734 1.238c2.596 11.378-.53 23.797-9.39 32.658" fill="#00B5AC"/><path d="M69.416 69.465c4.466-4.465 6.04-10.723 4.733-16.456a.522.522 0 0 1 .37-.625l9.638-2.582a.523.523 0 0 1 .645.378c2.275 9.405-.25 19.734-7.594 27.077-11.377 11.378-29.93 11.208-41.093-.51-10.504-11.023-10.5-28.57.01-39.587 7.367-7.727 17.95-10.42 27.565-8.092a.524.524 0 0 1 .377.644l-2.582 9.638a.522.522 0 0 1-.624.37c-6.072-1.384-12.73.462-17.226 5.55-5.965 6.75-5.834 17.082.285 23.692 6.856 7.406 18.425 7.574 25.496.503zm4.732-63.3a1.036 1.036 0 0 1 1.278-.734A47.642 47.642 0 0 1 96.11 17.605a47.648 47.648 0 0 1 12.174 20.685 1.036 1.036 0 0 1-.734 1.278l-15.76 4.223a1.036 1.036 0 0 1-1.258-.72 29.351 29.351 0 0 0-7.421-12.467 29.351 29.351 0 0 0-12.467-7.42 1.035 1.035 0 0 1-.72-1.26l4.223-15.759z" fill="#FFCA05"/></g></g></svg>