<svg width="360" height="122" viewBox="0 0 360 122" xmlns="http://www.w3.org/2000/svg"><title>pe_logo_teal_yellow_recommended</title><g fill="none" fill-rule="evenodd"><g><path d="M141.082 33.526h-3.436V27.66h17.173c7.028 0 11.941 4.914 11.941 12.206S161.847 52.23 154.82 52.23h-6.816v12.945h-6.921v-31.65zm42.008 4.068c7.714 0 11.94 5.655 11.94 12.787 0 .793-.158 2.483-.158 2.483h-18.599c.529 4.755 4.016 7.239 8.085 7.239 4.333 0 7.555-3.012 7.555-3.012l2.801 4.65s-4.121 4.068-10.832 4.068c-8.93 0-14.477-6.445-14.477-14.107 0-8.296 5.6-14.108 13.685-14.108zm79.841 0c8.243 0 14.794 5.865 14.794 14.108 0 8.295-6.551 14.107-14.794 14.107-8.19 0-14.742-5.812-14.742-14.107 0-8.243 6.553-14.108 14.742-14.108zm70.12 10.673h.845v-.21c0-3.859-1.533-5.285-4.967-5.285-1.215 0-3.593.317-3.593 1.796v1.427h-6.234v-2.853c0-5.02 7.08-5.548 9.88-5.548 8.983 0 11.624 4.703 11.624 10.727v10.038c0 .74.423 1.162 1.162 1.162h2.115v5.654h-6.024c-2.483 0-3.434-1.373-3.434-2.958 0-.688.053-1.163.053-1.163h-.106s-2.06 4.755-8.137 4.755c-4.809 0-9.194-3.011-9.194-8.4 0-8.455 11.625-9.142 16.01-9.142zm-151.759 34.49c5.865 0 7.767 3.277 7.767 3.277h.106s-.053-.688-.053-1.585v-4.756c0-.792-.423-1.162-1.163-1.162h-2.113v-5.707h6.393c2.484 0 3.594 1.11 3.594 3.593v27.105c0 .74.422 1.163 1.162 1.163h2.06v5.654h-6.181c-2.431 0-3.329-1.163-3.329-2.748v-1.004h-.106s-2.22 4.385-8.401 4.385c-7.292 0-11.994-5.759-11.994-14.107 0-8.56 5.125-14.107 12.258-14.107zm33.501.001c6.235 0 8.296 3.804 8.296 3.804h.106v-.687c0-1.216.845-2.483 2.96-2.483h6.234v5.706h-2.061c-.687 0-1.162.37-1.162 1.056v18.547c0 9.246-7.186 12.734-14.214 12.734-3.382 0-6.974-.952-9.564-2.325l2.06-5.284s3.33 1.797 7.451 1.797c4.069 0 7.609-1.744 7.609-6.605v-1.268c0-.634.053-1.427.053-1.427h-.106c-1.585 2.272-3.91 3.487-7.503 3.487-7.715 0-12.1-6.235-12.1-13.631 0-7.398 4.175-13.421 11.941-13.421zm35.034 0c7.715 0 11.941 5.654 11.941 12.786 0 .793-.158 2.484-.158 2.484h-18.6c.53 4.755 4.017 7.238 8.085 7.238 4.333 0 7.556-3.011 7.556-3.011l2.8 4.649s-4.12 4.069-10.831 4.069c-8.93 0-14.478-6.446-14.478-14.108 0-8.295 5.601-14.108 13.685-14.108zm-96.276-36.446c3.91 0 6.13-2.536 6.13-6.446 0-3.857-2.22-6.34-6.024-6.34h-5.654v12.786h5.548zm34.611 1.902c-.106-3.223-2.325-5.441-5.072-5.441-3.434 0-5.865 2.06-6.605 5.441h11.677zm74.77 11.889c4.385 0 8.03-3.381 8.03-8.4 0-4.967-3.645-8.402-8.03-8.402-4.334 0-7.98 3.435-7.98 8.401 0 5.02 3.646 8.401 7.98 8.401zm64.94.476c3.593 0 6.13-3.805 6.13-7.08v-.635h-1.163c-3.487 0-9.035.476-9.035 4.228 0 1.796 1.321 3.487 4.069 3.487zM189.272 96.812c0-4.174-2.167-8.295-6.658-8.295-3.698 0-6.763 3.012-6.763 8.348 0 5.125 2.695 8.455 6.658 8.455 3.487 0 6.763-2.537 6.763-8.508zm33.395-.581c0-6.129-3.064-7.767-6.71-7.767-4.068 0-6.288 2.96-6.288 7.503 0 4.703 2.378 8.19 6.711 8.19 3.223 0 6.287-1.85 6.287-7.926zm32.234-2.854c-.106-3.222-2.325-5.441-5.073-5.441-3.434 0-5.865 2.06-6.605 5.441H254.9zm-52.417-48.28c0-.793-.423-1.163-1.162-1.163h-2.114v-5.706h6.13c2.377 0 3.593 1.004 3.593 3.276v1.585c0 1.004-.106 1.69-.106 1.69h.106c1.215-3.856 4.437-6.92 8.559-6.92.581 0 1.215.105 1.215.105v6.605s-.686-.106-1.638-.106c-2.853 0-6.129 1.638-7.344 5.654-.37 1.32-.581 2.8-.581 4.385v10.673h-6.658V45.097zm22.827 11.519s3.434 3.963 8.031 3.963c2.061 0 3.646-.846 3.646-2.643 0-3.804-14.214-3.75-14.214-12.469 0-5.39 4.862-7.873 10.462-7.873 3.646 0 9.458 1.215 9.458 5.6v2.8h-5.917v-1.32c0-1.268-1.903-1.901-3.382-1.901-2.378 0-4.016.845-4.016 2.43 0 4.227 14.319 3.381 14.319 12.364 0 5.072-4.49 8.242-10.356 8.242-7.397 0-11.201-4.807-11.201-4.807l3.17-4.386zm59.445-11.519c0-.793-.423-1.163-1.162-1.163h-2.114v-5.706h6.182c2.377 0 3.54 1.11 3.54 3.012v.792c0 .581-.105 1.163-.105 1.163h.105c1.162-2.272 4.069-5.6 9.511-5.6 5.97 0 9.405 3.116 9.405 10.25v10.514c0 .74.423 1.162 1.162 1.162h2.114v5.654h-6.394c-2.535 0-3.593-1.056-3.593-3.593V49.22c0-3.276-.845-5.496-4.227-5.496-3.593 0-6.287 2.272-7.239 5.496-.37 1.11-.527 2.325-.527 3.592v12.364h-6.658V45.097zm65.311-10.567c0-.793-.423-1.163-1.162-1.163h-2.113V27.66h6.392c2.484 0 3.593 1.11 3.593 3.593v27.105c0 .74.423 1.162 1.163 1.162H360v5.655h-6.34c-2.537 0-3.594-1.058-3.594-3.593V34.53zM141.081 78.69h-3.434v-5.866h22.667c2.484 0 3.593 1.11 3.593 3.593v5.706h-6.288v-2.272c0-.739-.423-1.162-1.162-1.162h-8.454v9.828h12.153v5.865h-12.153v8.929c0 .74.422 1.163 1.163 1.163h8.665c.74 0 1.162-.422 1.162-1.163v-2.272h6.288v5.707c0 2.536-1.11 3.593-3.593 3.593h-17.014c-2.536 0-3.593-1.057-3.593-3.593V78.689zm-.456-60.84V2.875H139V.1h7.95c3.25 0 5.525 2 5.525 5.35 0 3.2-2.2 4.525-2.95 4.675v.05s.55.25.875.9l1.725 3.425c.275.525.7.575 1.25.575h.325v2.775h-1.725c-1.325 0-1.9-.2-2.475-1.325l-2.275-4.475c-.375-.7-.75-.825-1.675-.825h-1.65v6.625h-3.275zm3.275-9.425h2.6c1.65 0 2.625-1.025 2.625-2.8 0-1.75-.975-2.75-2.575-2.75h-2.65v5.55zm10.85 3.05c0-3.925 2.65-6.675 6.475-6.675 3.65 0 5.65 2.675 5.65 6.05 0 .375-.075 1.175-.075 1.175H158c.25 2.25 1.9 3.425 3.825 3.425 2.05 0 3.575-1.425 3.575-1.425l1.325 2.2s-1.95 1.925-5.125 1.925c-4.225 0-6.85-3.05-6.85-6.675zm3.35-1.65h5.525c-.05-1.525-1.1-2.575-2.4-2.575-1.625 0-2.775.975-3.125 2.575zm10.575 1.65c0 3.7 2.7 6.675 6.9 6.675 3.475 0 5.375-2.3 5.375-2.3l-1.325-2.2s-1.6 1.725-3.775 1.725c-2.05 0-3.975-1.325-3.975-3.925 0-2.3 1.575-3.975 3.775-3.975.775 0 1.825.3 1.825 1v.7h2.8v-1.5c0-2.2-2.975-2.875-4.625-2.875-4.375 0-6.975 3.075-6.975 6.675zm13.45 0c0-3.9 3.1-6.675 6.975-6.675 3.9 0 7 2.775 7 6.675 0 3.925-3.1 6.675-7 6.675-3.875 0-6.975-2.75-6.975-6.675zm3.2 0c0 2.375 1.725 3.975 3.775 3.975 2.075 0 3.8-1.6 3.8-3.975 0-2.35-1.725-3.975-3.8-3.975-2.05 0-3.775 1.625-3.775 3.975zm13.65 6.375h3.15v-5.6c0-.575.075-1.1.2-1.6.4-1.625 1.475-2.95 3.075-2.95 1.525 0 1.725 1.175 1.725 2.55v7.6h3.175v-5.6c0-.6.05-1.125.2-1.625.35-1.6 1.475-2.925 3.05-2.925 1.475 0 1.75 1.1 1.75 2.55v5.9c0 1.2.5 1.7 1.7 1.7h3v-2.675h-.975c-.35 0-.55-.2-.55-.55V9.65c0-3.35-1.525-4.85-4.175-4.85-2.025 0-3.675 1.25-4.35 2.625h-.05c-.55-1.725-1.8-2.625-3.725-2.625-2 0-3.525 1.4-4.125 2.65H202s.025-.275.025-.55v-.375c0-.9-.55-1.425-1.675-1.425h-2.925v2.7h1c.35 0 .55.175.55.55v9.5zm23.575 0h3.15v-5.6c0-.575.075-1.1.2-1.6.4-1.625 1.475-2.95 3.075-2.95 1.525 0 1.725 1.175 1.725 2.55v7.6h3.175v-5.6c0-.6.05-1.125.2-1.625.35-1.6 1.475-2.925 3.05-2.925 1.475 0 1.75 1.1 1.75 2.55v5.9c0 1.2.5 1.7 1.7 1.7h3v-2.675h-.975c-.35 0-.55-.2-.55-.55V9.65c0-3.35-1.525-4.85-4.175-4.85-2.025 0-3.675 1.25-4.35 2.625h-.05c-.55-1.725-1.8-2.625-3.725-2.625-2 0-3.525 1.4-4.125 2.65h-.05s.025-.275.025-.55v-.375c0-.9-.55-1.425-1.675-1.425H221v2.7h1c.35 0 .55.175.55.55v9.5zm32.95-3.825zm0 0l1.325 2.2s-1.95 1.925-5.125 1.925c-4.225 0-6.85-3.05-6.85-6.675 0-3.925 2.65-6.675 6.475-6.675 3.65 0 5.65 2.675 5.65 6.05 0 .375-.075 1.175-.075 1.175h-8.8c.25 2.25 1.9 3.425 3.825 3.425 2.05 0 3.574-1.424 3.575-1.425zm-7.3-4.2h5.525c-.05-1.525-1.1-2.575-2.4-2.575-1.625 0-2.775.975-3.125 2.575zm15.136-2.782l-.236-.33V6.9c0 .275-.05.55-.05.55h.05c.066-.13.145-.266.236-.407zm-.236-.33l.236.33c.663-1.025 2-2.243 4.264-2.243 2.825 0 4.45 1.475 4.45 4.85v4.975c0 .35.2.55.55.55h1v2.675h-3.025c-1.2 0-1.7-.5-1.7-1.7V10.3c0-1.55-.4-2.6-2-2.6-1.7 0-2.975 1.075-3.425 2.6a5.38 5.38 0 0 0-.25 1.7v5.85h-3.15v-9.5c0-.375-.2-.55-.55-.55h-1V5.1h2.925c1.125 0 1.675.525 1.675 1.425v.188zm11.75 4.762c0-4.05 2.425-6.675 5.8-6.675 2.775 0 3.675 1.55 3.675 1.55h.05s-.025-.325-.025-.75V3.35c0-.375-.2-.55-.55-.55h-1V.1h3.025c1.175 0 1.7.525 1.7 1.7v12.825c0 .35.2.55.55.55h.975v2.675h-2.925c-1.15 0-1.575-.55-1.575-1.3v-.475h-.05s-1.05 2.075-3.975 2.075c-3.45 0-5.675-2.725-5.675-6.675zm6.375 4c1.65 0 3.2-1.2 3.2-4.025 0-1.975-1.025-3.925-3.15-3.925-1.75 0-3.2 1.425-3.2 3.95 0 2.425 1.275 4 3.15 4zm9.175-4c0-3.925 2.65-6.675 6.475-6.675 3.65 0 5.65 2.675 5.65 6.05 0 .375-.075 1.175-.075 1.175h-8.8c.25 2.25 1.9 3.425 3.825 3.425 2.05 0 3.575-1.425 3.575-1.425l1.325 2.2s-1.95 1.925-5.125 1.925c-4.225 0-6.85-3.05-6.85-6.675zm3.35-1.65h5.525c-.05-1.525-1.1-2.575-2.4-2.575-1.625 0-2.775.975-3.125 2.575zm10.575 1.65c0-4.05 2.425-6.675 5.8-6.675 2.775 0 3.675 1.55 3.675 1.55h.05s-.025-.325-.025-.75V3.35c0-.375-.2-.55-.55-.55h-1V.1h3.025c1.175 0 1.7.525 1.7 1.7v12.825c0 .35.2.55.55.55h.975v2.675H315.6c-1.15 0-1.575-.55-1.575-1.3v-.475h-.05s-1.05 2.075-3.975 2.075c-3.45 0-5.675-2.725-5.675-6.675zm6.375 4c1.65 0 3.2-1.2 3.2-4.025 0-1.975-1.025-3.925-3.15-3.925-1.75 0-3.2 1.425-3.2 3.95 0 2.425 1.275 4 3.15 4zm17.075 2.375h3.175V7.625h2.725V5.1h-2.725v-.3c0-1.85 1.55-2.075 2.45-2.075.375 0 .65.05.65.05v-2.7S333.625 0 332.975 0c-1.775 0-5.2.55-5.2 4.725V5.1H326.2v2.525h1.575V17.85zm7.35-6.375c0-3.9 3.1-6.675 6.975-6.675 3.9 0 7 2.775 7 6.675 0 3.925-3.1 6.675-7 6.675-3.875 0-6.975-2.75-6.975-6.675zm3.2 0c0 2.375 1.725 3.975 3.775 3.975 2.075 0 3.8-1.6 3.8-3.975 0-2.35-1.725-3.975-3.8-3.975-2.05 0-3.775 1.625-3.775 3.975zm16.962-3.947l-.262-.503V7.4c0 .475-.05.8-.05.8h.05c.073-.23.16-.455.262-.672zm-.262-.503l.262.503c.705-1.496 2.084-2.603 3.788-2.603.275 0 .575.05.575.05V8.1s-.325-.05-.775-.05c-1.35 0-2.9.775-3.475 2.675a7.716 7.716 0 0 0-.275 2.075v5.05h-3.15v-9.5c0-.375-.2-.55-.55-.55h-1V5.1h2.9c1.125 0 1.7.475 1.7 1.55v.375z" fill="#001D45"/><path d="M81.714 81.774c-14.032 14.032-36.99 13.699-50.6-.999-12.142-13.116-12.4-33.619-.564-47.013 8.922-10.098 22.136-13.764 34.184-11.015a1.036 1.036 0 0 0 1.239-.735l5.126-19.128a1.04 1.04 0 0 0-.751-1.278c-19.081-4.619-40.08.724-54.703 16.058-20.852 21.868-20.861 56.686-.018 78.563 22.154 23.253 58.972 23.59 81.55 1.011 14.573-14.572 19.586-35.072 15.068-53.736a1.037 1.037 0 0 0-1.277-.75l-19.13 5.126a1.034 1.034 0 0 0-.734 1.238c2.596 11.378-.53 23.797-9.39 32.658" fill="#00B5AC"/><path d="M69.416 69.465c4.466-4.465 6.04-10.723 4.733-16.456a.522.522 0 0 1 .37-.625l9.638-2.582a.523.523 0 0 1 .645.378c2.275 9.405-.25 19.734-7.594 27.077-11.377 11.378-29.93 11.208-41.093-.51-10.504-11.023-10.5-28.57.01-39.587 7.367-7.727 17.95-10.42 27.565-8.092a.524.524 0 0 1 .377.644l-2.582 9.638a.522.522 0 0 1-.624.37c-6.072-1.384-12.73.462-17.226 5.55-5.965 6.75-5.834 17.082.285 23.692 6.856 7.406 18.425 7.574 25.496.503zm4.732-63.3a1.036 1.036 0 0 1 1.278-.734A47.642 47.642 0 0 1 96.11 17.605a47.648 47.648 0 0 1 12.174 20.685 1.036 1.036 0 0 1-.734 1.278l-15.76 4.223a1.036 1.036 0 0 1-1.258-.72 29.351 29.351 0 0 0-7.421-12.467 29.351 29.351 0 0 0-12.467-7.42 1.035 1.035 0 0 1-.72-1.26l4.223-15.759z" fill="#FFCA05"/></g></g></svg>