<svg width="412" height="122" viewBox="0 0 412 122" xmlns="http://www.w3.org/2000/svg"><title>pe_logo_teal_yellow</title><g fill="none" fill-rule="evenodd"><g><path d="M141.87 13.337h-4.224V6.125h21.116c8.642 0 14.684 6.042 14.684 15.009 0 8.966-6.042 15.203-14.684 15.203h-8.38v15.918h-8.512V13.337zm51.656 5.003c9.486 0 14.683 6.953 14.683 15.723 0 .975-.195 3.054-.195 3.054h-22.87c.65 5.847 4.938 8.9 9.941 8.9 5.328 0 9.291-3.702 9.291-3.702l3.444 5.717s-5.068 5.003-13.32 5.003c-10.98 0-17.802-7.926-17.802-17.347 0-10.201 6.887-17.348 16.828-17.348zm98.177 0c10.136 0 18.192 7.212 18.192 17.348 0 10.2-8.056 17.347-18.192 17.347-10.07 0-18.127-7.147-18.127-17.347 0-10.136 8.057-17.348 18.127-17.348zm86.222 13.124h1.04v-.259c0-4.744-1.885-6.498-6.108-6.498-1.494 0-4.418.39-4.418 2.209v1.754h-7.666v-3.508c0-6.172 8.706-6.822 12.15-6.822 11.045 0 14.293 5.783 14.293 13.19v12.344c0 .91.52 1.429 1.43 1.429h2.6v6.952h-7.408c-3.054 0-4.223-1.689-4.223-3.638 0-.845.065-1.429.065-1.429h-.13s-2.534 5.847-10.006 5.847c-5.913 0-11.305-3.703-11.305-10.33 0-10.396 14.294-11.241 19.686-11.241zm-186.61 42.412c7.212 0 9.551 4.028 9.551 4.028h.13s-.065-.845-.065-1.95v-5.847c0-.974-.52-1.43-1.43-1.43h-2.598v-7.016h7.861c3.054 0 4.42 1.364 4.42 4.418v33.33c0 .91.518 1.43 1.428 1.43h2.534v6.952h-7.602c-2.989 0-4.093-1.43-4.093-3.38v-1.233h-.13s-2.729 5.392-10.33 5.392c-8.967 0-14.749-7.082-14.749-17.347 0-10.526 6.302-17.347 15.073-17.347zm41.195 0c7.667 0 10.201 4.677 10.201 4.677h.13v-.844c0-1.495 1.04-3.054 3.64-3.054h7.665v7.017h-2.534c-.844 0-1.429.455-1.429 1.299v22.806c0 11.369-8.836 15.658-17.478 15.658-4.158 0-8.576-1.17-11.76-2.86l2.534-6.496s4.093 2.209 9.161 2.209c5.003 0 9.356-2.144 9.356-8.121v-1.56c0-.78.065-1.754.065-1.754h-.13c-1.949 2.793-4.807 4.288-9.226 4.288-9.486 0-14.878-7.667-14.878-16.762 0-9.097 5.133-16.503 14.683-16.503zm43.08-.001c9.486 0 14.683 6.953 14.683 15.723 0 .975-.195 3.054-.195 3.054h-22.87c.65 5.847 4.938 8.901 9.941 8.901 5.328 0 9.291-3.703 9.291-3.703l3.444 5.717s-5.068 5.003-13.32 5.003c-10.98 0-17.802-7.926-17.802-17.347 0-10.201 6.887-17.348 16.828-17.348zM157.203 29.06c4.808 0 7.537-3.118 7.537-7.926 0-4.743-2.729-7.797-7.407-7.797h-6.952V29.06h6.822zm42.56 2.339c-.13-3.963-2.859-6.691-6.237-6.691-4.223 0-7.212 2.533-8.122 6.69h14.359zm91.94 14.619c5.393 0 9.876-4.158 9.876-10.33 0-6.107-4.483-10.331-9.876-10.331-5.328 0-9.811 4.224-9.811 10.331 0 6.172 4.483 10.33 9.81 10.33zm79.855.585c4.418 0 7.537-4.678 7.537-8.706v-.78h-1.43c-4.288 0-11.11.585-11.11 5.198 0 2.209 1.625 4.288 5.003 4.288zM201.126 91.158c0-5.133-2.664-10.2-8.187-10.2-4.547 0-8.316 3.703-8.316 10.265 0 6.302 3.314 10.396 8.187 10.396 4.288 0 8.316-3.12 8.316-10.461zm41.065-.715c0-7.536-3.768-9.551-8.25-9.551-5.004 0-7.733 3.639-7.733 9.227 0 5.782 2.924 10.07 8.252 10.07 3.963 0 7.731-2.274 7.731-9.746zm39.636-3.509c-.13-3.963-2.859-6.691-6.237-6.691-4.223 0-7.212 2.533-8.122 6.691h14.359zm-64.454-59.368c0-.975-.52-1.43-1.43-1.43h-2.598V19.12h7.537c2.923 0 4.418 1.234 4.418 4.028v1.949c0 1.235-.13 2.079-.13 2.079h.13c1.494-4.743 5.457-8.511 10.525-8.511.715 0 1.494.13 1.494.13v8.122s-.844-.13-2.014-.13c-3.508 0-7.536 2.013-9.031 6.952-.455 1.624-.714 3.443-.714 5.392v13.124h-8.187v-24.69zm28.069 14.164s4.223 4.873 9.876 4.873c2.534 0 4.483-1.04 4.483-3.25 0-4.677-17.478-4.611-17.478-15.332 0-6.627 5.978-9.681 12.865-9.681 4.483 0 11.63 1.494 11.63 6.887v3.443h-7.277v-1.624c0-1.56-2.34-2.338-4.158-2.338-2.924 0-4.938 1.039-4.938 2.988 0 5.198 17.607 4.158 17.607 15.204 0 6.236-5.522 10.135-12.734 10.135-9.096 0-13.774-5.912-13.774-5.912l3.898-5.393zm73.096-14.164c0-.975-.52-1.43-1.429-1.43h-2.599V19.12h7.602c2.923 0 4.353 1.364 4.353 3.703v.974c0 .715-.13 1.43-.13 1.43h.13c1.43-2.794 5.003-6.887 11.695-6.887 7.341 0 11.565 3.833 11.565 12.605v12.929c0 .91.52 1.429 1.43 1.429h2.598v6.952h-7.862c-3.118 0-4.418-1.3-4.418-4.418V32.634c0-4.028-1.039-6.757-5.198-6.757-4.418 0-7.73 2.793-8.9 6.757-.456 1.365-.65 2.859-.65 4.418v15.203h-8.187v-24.69zm80.31-12.994c0-.975-.52-1.43-1.428-1.43h-2.6V6.126h7.862c3.054 0 4.418 1.364 4.418 4.418v33.33c0 .91.52 1.429 1.43 1.429h2.534v6.953h-7.797c-3.12 0-4.418-1.3-4.418-4.418V14.572zm-256.978 54.3h-4.223V61.66h27.873c3.054 0 4.418 1.365 4.418 4.419v7.017h-7.732v-2.794c0-.91-.52-1.43-1.43-1.43h-10.395v12.085h14.944v7.213H150.38v10.978c0 .912.52 1.43 1.43 1.43h10.655c.91 0 1.429-.519 1.429-1.43v-2.793h7.732v7.017c0 3.118-1.364 4.418-4.418 4.418h-20.921c-3.12 0-4.418-1.3-4.418-4.418v-34.5z" fill="#001D45"/><path d="M81.714 81.774c-14.032 14.032-36.99 13.699-50.6-.999-12.142-13.116-12.4-33.619-.564-47.013 8.922-10.098 22.136-13.764 34.184-11.015a1.036 1.036 0 0 0 1.239-.735l5.126-19.128a1.04 1.04 0 0 0-.751-1.278c-19.081-4.619-40.08.724-54.703 16.058-20.852 21.868-20.861 56.686-.018 78.563 22.154 23.253 58.972 23.59 81.55 1.011 14.573-14.572 19.586-35.072 15.068-53.736a1.037 1.037 0 0 0-1.277-.75l-19.13 5.126a1.034 1.034 0 0 0-.734 1.238c2.596 11.378-.53 23.797-9.39 32.658" fill="#00B5AC"/><path d="M69.416 69.465c4.466-4.465 6.04-10.723 4.733-16.456a.522.522 0 0 1 .37-.625l9.638-2.582a.523.523 0 0 1 .645.378c2.275 9.405-.25 19.734-7.594 27.077-11.377 11.378-29.93 11.208-41.093-.51-10.504-11.023-10.5-28.57.01-39.587 7.367-7.727 17.95-10.42 27.565-8.092a.524.524 0 0 1 .377.644l-2.582 9.638a.522.522 0 0 1-.624.37c-6.072-1.384-12.73.462-17.226 5.55-5.965 6.75-5.834 17.082.285 23.692 6.856 7.406 18.425 7.574 25.496.503zm4.732-63.3a1.036 1.036 0 0 1 1.278-.734A47.642 47.642 0 0 1 96.11 17.605a47.648 47.648 0 0 1 12.174 20.685 1.036 1.036 0 0 1-.734 1.278l-15.76 4.223a1.036 1.036 0 0 1-1.258-.72 29.351 29.351 0 0 0-7.421-12.467 29.351 29.351 0 0 0-12.467-7.42 1.035 1.035 0 0 1-.72-1.26l4.223-15.759z" fill="#FFCA05"/></g></g></svg>